<?xml version="1.0" encoding="UTF-8"?>
<svg id="Layer_1" xmlns="http://www.w3.org/2000/svg" version="1.1" viewBox="0 0 595.28 595.28">
  <!-- Generator: Adobe Illustrator 29.8.1, SVG Export Plug-In . SVG Version: 2.1.1 Build 2)  -->
  <defs>
    <style>
      .st0 {
        fill: #346f38;
      }

      .st1 {
        fill: #58b24f;
      }

      .st2 {
        fill: #77c85b;
      }

      .st3 {
        fill: #3a753d;
      }

      .st4 {
        fill: #7ecb62;
      }

      .st5 {
        fill: #5fb350;
      }

      .st6 {
        fill: #224927;
      }

      .st7 {
        fill: #5ab250;
      }
    </style>
  </defs>
  <path class="st2" d="M177.87,161.6c5.97-3.74,11.91-7.55,17.93-11.22,33.06-20.15,66.14-40.26,99.19-60.44,1.55-.95,2.71-1.34,4.42-.23,22.87,14.74,45.79,29.41,68.69,44.11.64.41,1.18.98,1.65,1.83-17.31,10.64-34.51,20.94-51.85,31.22-.14,0-.42-.01-.65-.02-3.48.23-5.13,2.58-6.85,4.92-1.53,2.07-1.45,3.85.58,5.48-1.8,1.14-3.6,2.29-5.77,3.31-.94-.2-1.51-.38-2.07-.35-6.53.4-12.55-.89-18.06-4.69-1.21-.84-3.38-.3-5.14-.67-.03-4.64-.03-9.02-.03-13.89-7.08,4.19-13.45,7.9-19.75,11.72-10.53,6.38-21.02,12.84-31.75,19.24-.68-.16-1.2-.2-1.6-.44-16.32-9.95-32.62-19.92-48.93-29.89Z"/>
  <path class="st7" d="M177.7,161.77c16.48,9.79,32.78,19.76,49.1,29.71.39.24.91.28,1.53.7.12.67.05,1.06.05,1.44.01,22.44.02,44.89.07,67.33,0,.8.38,1.61.69,2.58,13.99,8.87,27.88,17.57,41.78,26.25,9.48,5.93,18.97,11.83,28.28,17.84-3.82,1.76-7.57,3.25-11.1,5.13-3.26,1.74-6.44,3.73-9.36,5.99-1.34,1.04-1.83,3.11-2.96,4.5-3.84,4.68-6.34,9.98-7.78,15.83-8.4-5.16-16.82-10.29-25.2-15.47-20.99-12.98-41.98-25.97-62.92-39.04-1.03-.64-2.18-2.13-2.18-3.22-.15-30.89-.17-61.78-.2-92.67,0-8.91.03-17.81.21-26.89Z"/>
  <path class="st0" d="M299.36,307.53c-9.48-5.91-18.97-11.82-28.45-17.75-13.9-8.69-27.79-17.39-41.66-26.41,16.8-10.5,33.59-20.67,50.37-30.85,15.84,9.88,31.66,19.77,47.51,29.64,30.63,19.06,61.27,38.11,91.81,57.44-.95.9-1.76,1.58-2.67,2.13-14.27,8.66-28.55,17.32-42.85,25.92-1.53.92-3.25,1.54-5.09,2.28-5.67-3.31-11.14-6.6-16.74-10.05-4.63-2.97-9.12-5.82-13.65-8.6-7-4.29-14.03-8.52-21.18-12.92-5.89-3.71-11.65-7.28-17.41-10.84Z"/>
  <path class="st6" d="M368.54,349.96c1.63-.76,3.35-1.38,4.89-2.3,14.3-8.61,28.58-17.27,42.85-25.92.9-.55,1.72-1.23,2.75-1.95.32.72.58,1.54.58,2.36.02,38.07,0,76.14.07,114.21,0,2.11-.66,3.28-2.46,4.36-15.94,9.55-31.82,19.2-47.93,28.71-.36-.37-.52-.64-.65-1.16,0-1.82-.02-3.39-.02-5.22.01-23.18.01-46.09,0-69-.01-13.92-.05-27.84-.06-41.99,0-.85,0-1.47-.03-2.09Z"/>
  <path class="st1" d="M368.53,352.28c.03,13.92.07,27.84.08,41.76.02,22.91.02,45.82-.22,69-3.4-.28-2.82-2.54-2.51-4.67.13-.9.44-1.79.41-2.68-.19-5.19-.54-10-5.47-13.69-3.39-2.53-5.32-6.92-8.35-10.05-3.63-3.76-7.66-6.88-13.58-6.54-3.9.22-7.85-.59-11.29-2.91-1.5-1.01-3.15-1.8-4.74-2.67-1.72-.94-3.97-1.32-3.9-4.05,0-.22-.9-.47-1.42-.92-.01-.66,0-1.1.22-1.55.54-.35.89-.69,1.24-1.03-.47-.23-.93-.46-1.4-.7,0-12.98-.02-25.96.07-38.94.01-2.05-.48-3.3-2.36-4.41-9.58-5.66-19.05-11.49-28.55-17.62,1.25-.57,2.54-.67,3.74-1.03.89-.27,1.75-.8,2.46-1.4.46-.4.54-1.22.96-1.71,2.76-3.21,5.69-6.29,8.34-9.59,4.42-5.52,10.27-9.95,13.01-16.79.26-.64,1.08-1.05,1.64-1.57,7.01,4.26,14.04,8.49,21.04,12.78,4.53,2.78,9.02,5.63,13.55,8.78-.89.83-1.8,1.34-2.72,1.83-4.72,2.49-8,6.38-9.75,11.29-2.19,6.14-3.59,12.57-7.73,17.87-.69.88-1.18,2.01-1.48,3.1-.81,2.98,1.07,7.72,3.29,8.61,2.54,1.02,6.3-.71,8.11-3.67,1.2-1.97,2.38-3.96,3.75-5.81,3.91-5.24,8.02-10.24,13.72-13.77,3.45-2.14,6.57-4.81,9.84-7.25Z"/>
  <path class="st6" d="M279.02,498.8c-13.33-8.11-26.66-16.22-39.98-24.34-3.54-2.16-7.05-4.36-10.65-6.95-.04-1.77.02-3.12.03-4.48.03-18.49.05-36.99.25-55.57,7.95-4.77,15.74-9.4,23.48-14.14,9.04-5.54,18.02-11.18,27.02-16.77.17.81.48,1.62.48,2.43.02,18.04,0,36.09-.02,54.68-.02,20.88,0,41.21-.03,61.55,0,1.2-.37,2.4-.57,3.61Z"/>
  <path class="st6" d="M279.64,232.26c-16.8,10.44-33.58,20.62-50.48,30.95-.32-.65-.7-1.45-.71-2.25-.05-22.44-.06-44.89-.07-67.33,0-.38.07-.77.17-1.41,10.58-6.68,21.06-13.14,31.6-19.53,6.3-3.82,12.68-7.53,19.75-11.72,0,4.88,0,9.25,0,14.12-.01,6.99-.03,13.48-.05,19.97-.07,4.7-.19,9.41-.21,14.11-.03,7.6,0,15.21,0,23.09Z"/>
  <path class="st4" d="M279.07,376.36c-8.9,5.77-17.88,11.4-26.92,16.95-7.73,4.74-15.53,9.37-23.65,14.05-7.84-4.56-15.31-9.11-22.8-13.65-9.36-5.67-18.73-11.32-28.1-16.97.74-.68,1.38-1.52,2.22-2.03,15.44-9.42,30.91-18.79,46.34-28.21,1.41-.86,2.52-1.32,4.17-.3,15.88,9.81,31.81,19.53,47.73,29.28.33.2.61.47,1.01.88Z"/>
  <path class="st3" d="M318.04,166.88c17.2-10.3,34.4-20.59,51.76-31.05,16.16,9.97,32.16,20.1,48.14,30.24.63.4,1.12,1,1.49,1.64-.62.26-1.1.29-1.47.51-11.72,7.08-23.41,14.2-35.15,21.24-4.69,2.82-9.49,5.46-14.45,8.16-3.17-1.57-6.13-3.12-9.18-4.84-6.82-4.32-13.54-8.47-20.39-12.77-4.03-2.57-7.89-5.05-11.84-7.38-2.86-1.68-5.85-3.14-8.83-4.83-.05-.13-.14-.39-.13-.53.01-.13.05-.4.05-.4Z"/>
  <path class="st0" d="M279.14,498.96c.09-1.36.46-2.56.46-3.77.03-20.33.01-40.67.02-61.28,1.1-.79,2.22-1.23,3.25-1.83,11.37-6.66,22.73-13.34,34.33-19.84.29.47.33.77.38,1.07-.02.44-.04.88-.07,1.81.15,7.86.31,15.24.37,22.84-.19.89-.39,1.55-.39,2.21,0,20.16.02,40.31.04,60.47-5.48,3.47-10.92,6.99-16.47,10.32-.71.43-2.21.2-3.01-.28-6.31-3.78-12.54-7.69-18.91-11.72Z"/>
  <path class="st6" d="M368.58,197.65c4.75-2.72,9.55-5.36,14.25-8.18,11.74-7.04,23.43-14.17,35.15-21.24.37-.22.85-.25,1.43-.32.19,19.31.26,38.57.17,57.82,0,1-1.12,2.34-2.08,2.93-15.73,9.66-31.52,19.23-47.68,28.85-.63,0-.87-.03-1.13-.33-.05-11.3-.08-22.34-.1-33.65.01-8.81,0-17.35,0-25.89Z"/>
  <path class="st1" d="M177.55,376.99c9.41,5.4,18.78,11.05,28.14,16.72,7.49,4.53,14.97,9.09,22.63,13.74.16,18.59.13,37.08.1,55.58,0,1.35-.07,2.71-.17,4.34-6.32-3.52-12.57-7.33-18.82-11.46,1.67-2.85,3.58-5.26,4.91-7.96.74-1.5-.18-2.86-2.26-2.53-.8.13-1.59.29-2.75.5.69-1.68,1.19-2.9,1.86-4.2,1.88-1.33,3.51-2.7,5.31-3.79,5.06-3.07,6.11-7.69,2.41-12.34-2.13-2.68-4.34-5.5-7.1-7.43-2.48-1.74-5.97-3.61-8.64-3.17-4.31.72-7.87,3.64-9.75,8.18-1.64,3.96-3.57,7.88-5.93,11.45-1.44,2.19-2.88,4.02-2.07,6.75-2.23-1.31-4.57-2.48-6.64-4.01-.73-.54-1.15-1.95-1.16-2.97-.09-8.98-.06-17.95.19-27.18,2.55,2.29,5.03,4.44,8.8,3.17,2.2-.74,4.63-1.28,6.44-2.62,3.77-2.8,2.82-9.48-.24-12.21-2.97-2.66-6.43-4.76-9.59-7.21-.94-.73-2.24-1.79-2.28-2.74-.09-2.39-1.28-2.72-3.16-2.51-.09-1.95-.19-3.9-.24-6.11Z"/>
  <path class="st1" d="M317.73,500.59c-.21-20.11-.24-40.27-.24-60.42,0-.66.19-1.32.6-2.21,2.25-.87,3.84-.4,5.24,1.12.71.77,1.58,1.45,2.49,1.95,8.51,4.66,15.71,11.09,23.28,17.03,5.88,4.61,12.32,8.27,19.52,10.47.15.27.31.53.48.95-7.94,4.98-15.89,9.83-23.86,14.64-9.1,5.49-18.21,10.95-27.51,16.48Z"/>
  <path class="st5" d="M316.77,318.37c-.43.66-1.25,1.07-1.51,1.71-2.75,6.84-8.59,11.26-13.01,16.79-2.65,3.3-5.58,6.38-8.34,9.59-.42.49-.49,1.31-.96,1.71-.71.61-1.57,1.13-2.46,1.4-1.2.37-2.49.46-3.85.87-6.22-3.56-12.32-7.32-18.55-11.22,1.32-5.99,3.82-11.29,7.66-15.97,1.14-1.39,1.62-3.46,2.96-4.5,2.92-2.26,6.1-4.24,9.36-5.99,3.53-1.89,7.27-3.38,11.1-5.13,5.93,3.47,11.69,7.04,17.58,10.75Z"/>
  <path class="st7" d="M338.92,180.17c6.72,4.15,13.45,8.3,20.18,12.81-1.63,2.33-2.95,4.72-4.96,6.17-4.46,3.21-8.97,6.28-11.94,11.06-1.67,2.68-2.98,5.71-5.11,7.96-3.44,3.62-6.51,7.86-11.78,9.35-.88.25-1.4,1.75-2.08,2.67-.18-.06-.37-.11-.55-.18-4.07-1.47-5.4-4.18-5.23-8.62.39-10.44.15-20.9.43-31.6.68-.05,1.25.05,1.48.39,3.57,5.12,12.53,5.3,16.51.49,2.59-3.13,3.18-6.67,3.07-10.5Z"/>
  <path class="st5" d="M323.34,230.35c.56-1.08,1.08-2.58,1.96-2.83,5.27-1.49,8.34-5.73,11.78-9.35,2.13-2.24,3.44-5.28,5.11-7.96,2.98-4.78,7.48-7.84,11.94-11.06,2.01-1.45,3.34-3.84,5.06-6,3.05,1.36,6.01,2.91,9.18,4.48.22,8.56.23,17.09,0,25.95-1.33.92-2.37,1.79-3.54,2.07-1.43.33-3,.05-4.48.24-5.04.64-9.63,2.52-13.99,5.11-1.54.92-3.32,1.68-5.08,1.92-2.74.37-5.44,1.73-8.37.43-.65-.29-1.86.69-2.81,1.09-2.21-1.31-4.42-2.63-6.76-4.1Z"/>
  <path class="st5" d="M185.56,441.52c-.93-2.87.51-4.71,1.95-6.9,2.36-3.57,4.29-7.49,5.93-11.45,1.88-4.55,5.44-7.46,9.75-8.18,2.66-.45,6.15,1.43,8.64,3.17,2.76,1.93,4.97,4.75,7.1,7.43,3.69,4.65,2.65,9.27-2.41,12.34-1.8,1.09-3.43,2.46-5.53,3.8-3.15,2.03-5.92,3.96-8.9,5.87-2.99-.37-5.76-.72-8.53-1.06-2.62-1.62-5.25-3.24-7.99-5.01Z"/>
  <path class="st1" d="M330.21,234.61c.84-.56,2.05-1.54,2.7-1.25,2.93,1.29,5.63-.06,8.37-.43,1.75-.24,3.54-1,5.08-1.92,4.36-2.6,8.95-4.47,13.99-5.11,1.48-.19,3.05.1,4.48-.24,1.18-.27,2.21-1.14,3.52-1.8.24,10.99.28,22.03.28,33.47-.05.51-.07.61-.08.71-7.04-4.21-14.1-8.37-21.11-12.63-5.74-3.49-11.41-7.09-17.22-10.81Z"/>
  <path class="st5" d="M338.8,180.03c.24,3.98-.35,7.51-2.94,10.65-3.98,4.82-12.94,4.63-16.51-.49-.23-.34-.8-.43-1.41-.65-.25-5.17-.31-10.34-.41-16.03.19-2.2.42-3.88.64-5.56,2.93,1.56,5.92,3.02,8.78,4.7,3.96,2.32,7.82,4.81,11.84,7.38Z"/>
  <path class="st5" d="M177.75,383.37c1.93-.48,3.12-.15,3.21,2.24.04.95,1.34,2.01,2.28,2.74,3.16,2.45,6.62,4.55,9.59,7.21,3.06,2.74,4.01,9.42.24,12.21-1.8,1.34-4.23,1.88-6.44,2.62-3.77,1.27-6.25-.89-8.72-3.43-.19-7.78-.2-15.55-.17-23.59Z"/>
  <path class="st5" d="M280.05,195.01c-.18-6.45-.15-12.93-.11-19.65,1.75-.13,3.91-.67,5.13.17,5.51,3.8,11.53,5.09,18.06,4.69.56-.03,1.13.15,1.87.39-1.4.97-2.98,1.78-4.91,2.42-1.13-.41-1.93-.87-2.71-.86-2.57.03-5.15.37-7.71.33-6-.09-8.78,3.59-6.41,10.58-1,.63-2,1.26-3.2,1.93Z"/>
  <path class="st1" d="M283.43,192.97c-2.54-6.88.24-10.56,6.24-10.47,2.57.04,5.14-.31,7.71-.33.79,0,1.58.45,2.5.87-4.67,3.07-9.48,5.96-14.29,8.84-.63.38-1.33.66-2.17,1.09Z"/>
  <path class="st7" d="M202.3,447.62c2.77-1.93,5.53-3.87,8.51-5.81-.29,1.21-.78,2.42-1.47,4.11,1.16-.21,1.95-.37,2.75-.5,2.08-.33,3,1.03,2.26,2.53-1.33,2.7-3.25,5.1-5.04,7.81-2.36-1.09-4.59-2.36-6.85-4-.06-1.62-.11-2.88-.15-4.13Z"/>
  <path class="st4" d="M318.12,167.81c-.18,1.81-.4,3.49-.61,5.4-2.03,1.47-4.09,2.71-6.34,4-2.22-1.59-2.3-3.37-.77-5.44,1.72-2.34,3.37-4.68,6.9-4.8.38.28.51.38.68.45,0,0,.09.26.14.39Z"/>
  <path class="st1" d="M202.08,447.59c.26,1.29.31,2.54.26,4-2.92-1.44-5.76-3.08-8.69-4.89,2.67.17,5.44.51,8.43.89Z"/>
  <path class="st5" d="M317.76,413.31c-.24-.29-.28-.59-.37-1.12-.04-.23.02-.46.11-.53.56.16,1.03.39,1.49.62-.35.34-.7.68-1.24,1.03Z"/>
  <path class="st3" d="M368.73,258.1c-.16-.15-.15-.25-.09-.5.29-.11.54-.08.98-.03-.11.21-.41.4-.89.53Z"/>
  <path class="st5" d="M318,167.29c-.18.07-.32-.04-.47-.3-.05-.12.23-.12.37-.11.14,0,.11.28.1.41Z"/>
  <path class="st5" d="M368.56,352.05c-3.3,2.67-6.42,5.34-9.87,7.48-5.7,3.53-9.81,8.53-13.72,13.77-1.38,1.84-2.55,3.84-3.75,5.81-1.81,2.97-5.57,4.7-8.11,3.67-2.22-.9-4.1-5.63-3.29-8.61.3-1.09.79-2.22,1.48-3.1,4.14-5.3,5.54-11.73,7.73-17.87,1.76-4.92,5.03-8.8,9.75-11.29.92-.49,1.83-1,2.84-1.68,5.57,3.11,11.04,6.4,16.71,9.72.22.64.24,1.26.23,2.11Z"/>
  <path class="st5" d="M368.64,468.27c-7.22-1.94-13.66-5.6-19.54-10.21-7.57-5.94-14.77-12.37-23.28-17.03-.92-.5-1.79-1.18-2.49-1.95-1.4-1.52-2.99-1.99-5.15-1.34-.37-7.37-.53-14.75-.65-22.39.53-.04,1.44.21,1.43.43-.07,2.73,2.18,3.11,3.9,4.05,1.59.87,3.24,1.66,4.74,2.67,3.43,2.33,7.39,3.14,11.29,2.91,5.92-.34,9.95,2.78,13.58,6.54,3.02,3.13,4.96,7.52,8.35,10.05,4.93,3.69,5.28,8.5,5.47,13.69.03.89-.28,1.78-.41,2.68-.31,2.13-.9,4.39,2.48,4.94.25,1.57.27,3.13.27,4.96Z"/>
</svg>